<svg xmlns="http://www.w3.org/2000/svg" xmlns:xlink="http://www.w3.org/1999/xlink" width="284" height="284" viewBox="0 0 284 284">
  <defs>
    <filter id="Ellipse_2" x="0" y="0" width="284" height="284" filterUnits="userSpaceOnUse">
      <feOffset dy="3" input="SourceAlpha"/>
      <feGaussianBlur stdDeviation="3" result="blur"/>
      <feFlood flood-opacity="0.161"/>
      <feComposite operator="in" in2="blur"/>
      <feComposite in="SourceGraphic"/>
    </filter>
  </defs>
  <g id="Group_72" data-name="Group 72" transform="translate(-888 -1800)">
    <g transform="matrix(1, 0, 0, 1, 888, 1800)" filter="url(#Ellipse_2)">
      <circle id="Ellipse_2-2" data-name="Ellipse 2" cx="133" cy="133" r="133" transform="translate(9 6)" fill="#159570"/>
    </g>
    <g id="online_1_" data-name="online (1)" transform="translate(961 1869.529)">
      <g id="Group_22" data-name="Group 22" transform="translate(0 0)">
        <g id="Group_21" data-name="Group 21">
          <path id="Path_32" data-name="Path 32" d="M126.311,0H12.631A12.644,12.644,0,0,0,0,12.631v113.68a12.644,12.644,0,0,0,12.631,12.631h113.68a12.644,12.644,0,0,0,12.631-12.631V12.631A12.644,12.644,0,0,0,126.311,0Zm6.315,126.311a6.324,6.324,0,0,1-6.315,6.315H12.631a6.324,6.324,0,0,1-6.315-6.315V31.578H132.627Zm0-101.049H6.315V12.631a6.324,6.324,0,0,1,6.315-6.315h113.68a6.324,6.324,0,0,1,6.315,6.315V25.262Z" transform="translate(0 0)" fill="#fff"/>
          <circle id="Ellipse_4" data-name="Ellipse 4" cx="3.158" cy="3.158" r="3.158" transform="translate(12.631 12.631)" fill="#fff"/>
          <circle id="Ellipse_5" data-name="Ellipse 5" cx="3.158" cy="3.158" r="3.158" transform="translate(25.262 12.631)" fill="#fff"/>
          <circle id="Ellipse_6" data-name="Ellipse 6" cx="3.158" cy="3.158" r="3.158" transform="translate(37.893 12.631)" fill="#fff"/>
          <path id="Path_33" data-name="Path 33" d="M67.158,206.173h63.156a3.156,3.156,0,0,0,3.158-3.158V152.491a3.156,3.156,0,0,0-3.158-3.158H67.158A3.156,3.156,0,0,0,64,152.491v50.525A3.156,3.156,0,0,0,67.158,206.173Zm3.158-50.524h56.84v44.209H70.315Z" transform="translate(-45.053 -105.124)" fill="#fff"/>
          <path id="Path_34" data-name="Path 34" d="M116.14,192a9.484,9.484,0,0,0-9.473,9.473V220.42a3.158,3.158,0,1,0,6.316,0v-3.158H119.3v3.158a3.158,3.158,0,1,0,6.316,0V201.473A9.484,9.484,0,0,0,116.14,192Zm3.158,18.947h-6.315v-9.473a3.158,3.158,0,0,1,6.316,0v9.473Z" transform="translate(-75.089 -135.16)" fill="#fff"/>
          <path id="Path_35" data-name="Path 35" d="M201.473,192h-6.315A3.156,3.156,0,0,0,192,195.158V220.42a3.156,3.156,0,0,0,3.158,3.158h6.315a9.484,9.484,0,0,0,9.473-9.473V201.473A9.484,9.484,0,0,0,201.473,192Zm3.158,22.1a3.16,3.16,0,0,1-3.158,3.158h-3.158V198.316h3.158a3.16,3.16,0,0,1,3.158,3.158Z" transform="translate(-135.16 -135.16)" fill="#fff"/>
          <path id="Path_36" data-name="Path 36" d="M67.158,390.315h94.733a3.158,3.158,0,1,0,0-6.316H67.158a3.158,3.158,0,1,0,0,6.316Z" transform="translate(-45.053 -270.319)" fill="#fff"/>
          <path id="Path_37" data-name="Path 37" d="M323.158,198.315H342.1a3.158,3.158,0,1,0,0-6.315H323.158a3.158,3.158,0,1,0,0,6.315Z" transform="translate(-225.267 -135.16)" fill="#fff"/>
          <path id="Path_38" data-name="Path 38" d="M323.158,262.315H342.1a3.158,3.158,0,1,0,0-6.315H323.158a3.158,3.158,0,1,0,0,6.315Z" transform="translate(-225.267 -180.213)" fill="#fff"/>
          <path id="Path_39" data-name="Path 39" d="M323.158,326.315H342.1a3.158,3.158,0,1,0,0-6.316H323.158a3.158,3.158,0,0,0,0,6.316Z" transform="translate(-225.267 -225.266)" fill="#fff"/>
        </g>
      </g>
    </g>
  </g>
</svg>
