<svg xmlns="http://www.w3.org/2000/svg" width="266" height="266" viewBox="0 0 266 266">
  <g id="Group_75" data-name="Group 75" transform="translate(-203 -3126)">
    <circle id="Ellipse_2" data-name="Ellipse 2" cx="133" cy="133" r="133" transform="translate(203 3126)" fill="#159570"/>
    <g id="payment-method" transform="translate(266.759 3188.734)">
      <g id="Group_41" data-name="Group 41" transform="translate(41.912 105.34)">
        <g id="Group_40" data-name="Group 40">
          <path id="Path_46" data-name="Path 46" d="M158.183,386.064a2.864,2.864,0,0,0-.156-.516,2.784,2.784,0,0,0-.252-.472,2.666,2.666,0,0,0-.757-.757,2.7,2.7,0,0,0-.475-.252,2.574,2.574,0,0,0-.513-.156,2.7,2.7,0,0,0-1.07,0,2.657,2.657,0,0,0-.516.156,2.779,2.779,0,0,0-.472.252,2.743,2.743,0,0,0-1.01,1.229,2.661,2.661,0,0,0-.156.516,2.636,2.636,0,0,0,0,1.07,2.577,2.577,0,0,0,.156.513,2.537,2.537,0,0,0,.252.475,2.666,2.666,0,0,0,.757.757,2.766,2.766,0,0,0,.472.253,2.659,2.659,0,0,0,.516.156,2.636,2.636,0,0,0,1.07,0,2.576,2.576,0,0,0,.513-.156,2.709,2.709,0,0,0,.475-.253,2.667,2.667,0,0,0,.757-.757,2.707,2.707,0,0,0,.252-.475,2.77,2.77,0,0,0,.156-.513,2.635,2.635,0,0,0,0-1.07Z" transform="translate(-152.75 -383.857)" fill="#fff"/>
        </g>
      </g>
      <g id="Group_43" data-name="Group 43" transform="translate(0 85.054)">
        <g id="Group_42" data-name="Group 42">
          <path id="Path_47" data-name="Path 47" d="M126.213,333.261c-.011-.027-.022-.055-.033-.081-2.525-5.909-8.448-8.093-15.458-5.7l-19.116,5.286a12.531,12.531,0,0,0-7.76-7.642l-.073-.026-21.012-7.132c-1.749-2.261-7.227-8.045-17.484-8.045-7.168,0-13.509,4.917-17.137,10.277H2.744A2.744,2.744,0,0,0,0,322.943v34.593a2.744,2.744,0,0,0,2.744,2.744H19.058a2.744,2.744,0,0,0,2.744-2.744v-2.369h7.651a2.744,2.744,0,0,0,2.744-2.744v-.79c4.46.389,5.927,1.235,10.023,3.6A166.05,166.05,0,0,0,58.7,363.647c.04.018.08.035.12.051a24.629,24.629,0,0,0,8.828,1.664,21.87,21.87,0,0,0,9.091-1.946l42.252-15.128c.075-.027.149-.057.222-.091C123.253,346.339,129.27,341.1,126.213,333.261Zm-109.9,21.531H5.488V325.687H16.314Zm10.394-5.113H21.8V325.687h4.907Zm90.314-6.516L74.789,358.285c-.037.013-.087.033-.124.048l-.111.048a17.784,17.784,0,0,1-13.664.233,158.948,158.948,0,0,1-15.931-8.137c-4.49-2.589-6.653-3.837-12.764-4.342v-22.1c2.6-4.263,7.645-8.626,13.082-8.626,9.325,0,13.276,6.065,13.432,6.31a2.744,2.744,0,0,0,1.456,1.161l21.806,7.4c3.483,1.307,5.323,4.29,4.477,7.264a5.346,5.346,0,0,1-6.569,3.69L55.3,333.446a2.744,2.744,0,1,0-1.658,5.231l24.625,7.8.078.024a10.77,10.77,0,0,0,8.236-.957,10.761,10.761,0,0,0,5.147-6.5q.095-.333.168-.667l20.6-5.707c2.975-1.016,6.881-1.383,8.62,2.623C122.917,340,118.238,342.584,117.022,343.164Z" transform="translate(0 -309.922)" fill="#fff"/>
        </g>
      </g>
      <g id="Group_45" data-name="Group 45" transform="translate(93.084 33.902)">
        <g id="Group_44" data-name="Group 44">
          <path id="Path_48" data-name="Path 48" d="M344.685,125.705a2.667,2.667,0,0,0-.159-.516,2.7,2.7,0,0,0-1.01-1.229,2.784,2.784,0,0,0-.472-.252,2.733,2.733,0,0,0-1.586-.156,2.578,2.578,0,0,0-.513.156,2.707,2.707,0,0,0-.475.252,2.666,2.666,0,0,0-.757.757,2.784,2.784,0,0,0-.252.472,2.66,2.66,0,0,0-.156.516,2.636,2.636,0,0,0,0,1.07,2.579,2.579,0,0,0,.156.513,2.709,2.709,0,0,0,.252.475,2.666,2.666,0,0,0,.757.757,2.706,2.706,0,0,0,.475.252,2.771,2.771,0,0,0,.513.156,2.7,2.7,0,0,0,.535.055,2.751,2.751,0,0,0,.538-.055,2.9,2.9,0,0,0,.513-.156,2.783,2.783,0,0,0,.472-.252,2.666,2.666,0,0,0,.757-.757,2.535,2.535,0,0,0,.252-.475,2.584,2.584,0,0,0,.159-.513,2.772,2.772,0,0,0,0-1.07Z" transform="translate(-339.25 -123.498)" fill="#fff"/>
        </g>
      </g>
      <g id="Group_47" data-name="Group 47" transform="translate(8.147 0.023)">
        <g id="Group_46" data-name="Group 46">
          <path id="Path_49" data-name="Path 49" d="M159.283,9.316H142.97a2.744,2.744,0,0,0-2.744,2.744v2.369h-7.651a2.744,2.744,0,0,0-2.744,2.744v.79c-4.46-.389-5.927-1.235-10.022-3.6a166.029,166.029,0,0,0-16.484-8.416c-.04-.018-.08-.035-.121-.051a23.343,23.343,0,0,0-17.917.282L74.246,10.133,64.939.827a2.744,2.744,0,0,0-3.88,0L30.5,31.381a2.721,2.721,0,0,0,0,3.881L82.716,87.473a2.965,2.965,0,0,0,3.881,0l27.895-27.895c.725.063,1.478.1,2.258.1,7.168,0,13.509-4.917,17.137-10.277h25.4a2.744,2.744,0,0,0,2.744-2.744V12.06A2.744,2.744,0,0,0,159.283,9.316ZM63,6.647,69.253,12.9a11.962,11.962,0,0,1-12.507,0ZM42.579,39.575l-6.254-6.254,6.254-6.254a11.963,11.963,0,0,1,0,12.508ZM84.656,81.652,78.4,75.4a11.946,11.946,0,0,1,12.5,0ZM94.862,71.447a17.436,17.436,0,0,0-20.411,0L46.532,43.528a17.437,17.437,0,0,0,0-20.413l6.261-6.26a17.437,17.437,0,0,0,20.413,0l5.935,5.935a10.875,10.875,0,0,0-8.164,5.982A15.638,15.638,0,1,0,88.957,48.13l9.264,3.144a17.518,17.518,0,0,0,2.907,13.906ZM78.18,44.472l.073.026,5.487,1.862a10.153,10.153,0,1,1-13.781-11.6C70.465,38.978,73.5,42.735,78.18,44.472Zm26.9,16.755a12,12,0,0,1-1.753-5.706,21.335,21.335,0,0,0,4.839,2.62Zm24.75-15.667c-2.6,4.263-7.644,8.627-13.082,8.627a19.971,19.971,0,0,1-2.862-.2l-.011,0a15.715,15.715,0,0,1-10.164-5.562c-.056-.082-.294-.394-.33-.446a2.734,2.734,0,0,0-1.512-1.257l-21.815-7.4c-3.481-1.307-5.322-4.288-4.478-7.261l0-.006,0-.007a5.346,5.346,0,0,1,6.566-3.68l24.583,7.79a2.744,2.744,0,0,0,1.658-5.231l-19.551-6.2-.171-.171-.005-.005L78.538,14.425l8.7-3.115.095-.036.029-.012q.056-.023.111-.048a17.782,17.782,0,0,1,13.664-.233,158.938,158.938,0,0,1,15.931,8.137c4.49,2.589,6.653,3.837,12.764,4.342Zm10.395-1.65h-4.907V19.916h4.907Zm16.314,0H145.713V14.8H156.54Z" transform="translate(-29.691 -0.023)" fill="#fff"/>
        </g>
      </g>
    </g>
  </g>
</svg>
