<svg xmlns="http://www.w3.org/2000/svg" xmlns:xlink="http://www.w3.org/1999/xlink" width="284" height="284" viewBox="0 0 284 284">
  <defs>
    <filter id="Ellipse_3" x="0" y="0" width="284" height="284" filterUnits="userSpaceOnUse">
      <feOffset dy="3" input="SourceAlpha"/>
      <feGaussianBlur stdDeviation="3" result="blur"/>
      <feFlood flood-opacity="0.161"/>
      <feComposite operator="in" in2="blur"/>
      <feComposite in="SourceGraphic"/>
    </filter>
  </defs>
  <g id="Group_71" data-name="Group 71" transform="translate(-194 -1360)">
    <g transform="matrix(1, 0, 0, 1, 194, 1360)" filter="url(#Ellipse_3)">
      <circle id="Ellipse_3-2" data-name="Ellipse 3" cx="133" cy="133" r="133" transform="translate(9 6)" fill="#159570"/>
    </g>
    <g id="conversation" transform="translate(266 1427.501)">
      <g id="Group_2" data-name="Group 2" transform="translate(0 60.95)">
        <g id="Group_1" data-name="Group 1">
          <path id="Path_23" data-name="Path 23" d="M49.869,261.812a2.742,2.742,0,0,0-.606-.1,17.538,17.538,0,0,0,4.857-12.123V235.152a2.772,2.772,0,0,0-.03-.387c.018-.261.03-.523.03-.788v-9.135a2.744,2.744,0,0,0-2.744-2.744H32.97a14.073,14.073,0,0,0-14.057,14.057V249.59a17.536,17.536,0,0,0,4.857,12.123,2.738,2.738,0,0,0-.605.1A25.515,25.515,0,0,0,0,287.186V298.91a2.744,2.744,0,0,0,2.744,2.744H70.289a2.744,2.744,0,0,0,2.744-2.744V287.186A25.514,25.514,0,0,0,49.869,261.812ZM24.4,239.634v-3.48a8.578,8.578,0,0,1,8.568-8.568H48.632v6.39A5.841,5.841,0,0,1,42.8,239.81H24.4Zm0,5.664H42.8a11.251,11.251,0,0,0,5.834-1.623v5.914a12.115,12.115,0,1,1-24.231,0Zm18.088,21.9-5.973,5.973-5.973-5.973Zm25.055,28.973H5.489v-5.489H16.877a2.744,2.744,0,1,0,0-5.489H5.589A20.027,20.027,0,0,1,22.948,267.36l11.628,11.628a2.744,2.744,0,0,0,3.881,0L50.085,267.36a20.018,20.018,0,0,1,17.459,19.826Z" transform="translate(0 -222.097)" fill="#fff"/>
        </g>
      </g>
      <g id="Group_4" data-name="Group 4" transform="translate(67.474)">
        <g id="Group_3" data-name="Group 3">
          <path id="Path_24" data-name="Path 24" d="M295.742,39.715a2.747,2.747,0,0,0-.607-.1,17.537,17.537,0,0,0,4.857-12.123V13.055a2.774,2.774,0,0,0-.03-.387c.018-.261.03-.523.03-.788V2.744A2.744,2.744,0,0,0,297.248,0H278.842a14.073,14.073,0,0,0-14.057,14.057V27.493a17.537,17.537,0,0,0,4.857,12.123,2.75,2.75,0,0,0-.606.1,25.515,25.515,0,0,0-23.163,25.374V76.813a2.744,2.744,0,0,0,2.744,2.744H270.7a2.744,2.744,0,0,0,0-5.489H251.361v-8.98a20.018,20.018,0,0,1,17.459-19.826l11.628,11.628a2.744,2.744,0,0,0,3.881,0l11.628-11.628a20.018,20.018,0,0,1,17.459,19.826v8.98H293.2a2.744,2.744,0,1,0,0,5.489h22.961a2.744,2.744,0,0,0,2.744-2.744V65.089A25.515,25.515,0,0,0,295.742,39.715ZM282.389,51.07,276.416,45.1h11.946ZM294.5,27.493a12.115,12.115,0,0,1-24.231,0V23.2h18.4a11.254,11.254,0,0,0,5.834-1.623Zm0-15.614a5.841,5.841,0,0,1-5.834,5.834h-18.4V14.057a8.578,8.578,0,0,1,8.568-8.568H294.5Z" transform="translate(-245.872)" fill="#fff"/>
        </g>
      </g>
      <g id="Group_6" data-name="Group 6" transform="translate(101.248 74.068)">
        <g id="Group_5" data-name="Group 5">
          <path id="Path_25" data-name="Path 25" d="M373.624,270.7a2.743,2.743,0,1,0,.8,1.94A2.765,2.765,0,0,0,373.624,270.7Z" transform="translate(-368.94 -269.9)" fill="#fff"/>
        </g>
      </g>
      <g id="Group_8" data-name="Group 8">
        <g id="Group_7" data-name="Group 7">
          <path id="Path_26" data-name="Path 26" d="M73.384,38.4,61.907,26.924v-13.2A13.737,13.737,0,0,0,48.185,0H13.721A13.737,13.737,0,0,0,0,13.721v24.15A13.737,13.737,0,0,0,13.721,51.593H48.185a13.644,13.644,0,0,0,12.7-8.507H71.443A2.744,2.744,0,0,0,73.384,38.4Zm-14.5-.8a2.744,2.744,0,0,0-2.675,2.129,8.188,8.188,0,0,1-8.02,6.378H13.721a8.242,8.242,0,0,1-8.233-8.233V13.721a8.242,8.242,0,0,1,8.233-8.233H48.185a8.242,8.242,0,0,1,8.233,8.233V28.06a2.745,2.745,0,0,0,.8,1.94l7.6,7.6Z" fill="#fff"/>
        </g>
      </g>
      <g id="Group_10" data-name="Group 10" transform="translate(66.32 88.915)">
        <g id="Group_9" data-name="Group 9">
          <path id="Path_27" data-name="Path 27" d="M302.132,324H267.669a13.644,13.644,0,0,0-12.7,8.507H244.411a2.744,2.744,0,0,0-1.941,4.685l11.477,11.477v13.2a13.737,13.737,0,0,0,13.721,13.721h34.464a13.737,13.737,0,0,0,13.721-13.721v-24.15A13.737,13.737,0,0,0,302.132,324Zm8.233,37.871a8.242,8.242,0,0,1-8.233,8.233H267.669a8.242,8.242,0,0,1-8.233-8.233V347.532a2.745,2.745,0,0,0-.8-1.94l-7.6-7.6h5.938a2.744,2.744,0,0,0,2.675-2.129,8.188,8.188,0,0,1,8.02-6.378h34.464a8.242,8.242,0,0,1,8.233,8.233Z" transform="translate(-241.666 -324)" fill="#fff"/>
        </g>
      </g>
      <g id="Group_12" data-name="Group 12" transform="translate(102.636 106.606)">
        <g id="Group_11" data-name="Group 11">
          <path id="Path_28" data-name="Path 28" d="M393.252,389.267a2.744,2.744,0,0,0-3.881,0l-7.3,7.3-3.392-3.392a2.744,2.744,0,0,0-3.881,3.881l5.333,5.333a2.744,2.744,0,0,0,3.881,0l9.236-9.236A2.745,2.745,0,0,0,393.252,389.267Z" transform="translate(-373.999 -388.463)" fill="#fff"/>
        </g>
      </g>
      <g id="Group_14" data-name="Group 14" transform="translate(24.423 9.339)">
        <g id="Group_13" data-name="Group 13">
          <path id="Path_29" data-name="Path 29" d="M108,42.878a9.538,9.538,0,0,0-8.823-8.823,9.437,9.437,0,0,0-7.16,2.535,9.549,9.549,0,0,0-3.023,6.956,2.744,2.744,0,1,0,5.489,0,4.027,4.027,0,1,1,4.912,3.929,4.609,4.609,0,0,0-3.63,4.518v1.464a2.744,2.744,0,0,0,5.489,0v-.8A9.464,9.464,0,0,0,108,42.878Z" transform="translate(-88.994 -34.032)" fill="#fff"/>
        </g>
      </g>
      <g id="Group_16" data-name="Group 16" transform="translate(31.194 36.524)">
        <g id="Group_15" data-name="Group 15">
          <path id="Path_30" data-name="Path 30" d="M118.355,133.894a2.743,2.743,0,1,0,.8,1.94A2.765,2.765,0,0,0,118.355,133.894Z" transform="translate(-113.67 -133.09)" fill="#fff"/>
        </g>
      </g>
      <g id="Group_18" data-name="Group 18" transform="translate(25.11 124.042)">
        <g id="Group_17" data-name="Group 17">
          <path id="Path_31" data-name="Path 31" d="M96.185,452.8a2.743,2.743,0,1,0,.8,1.94A2.765,2.765,0,0,0,96.185,452.8Z" transform="translate(-91.5 -452)" fill="#fff"/>
        </g>
      </g>
    </g>
  </g>
</svg>
