<svg xmlns="http://www.w3.org/2000/svg" xmlns:xlink="http://www.w3.org/1999/xlink" width="284" height="284" viewBox="0 0 284 284">
  <defs>
    <filter id="Ellipse_2" x="0" y="0" width="284" height="284" filterUnits="userSpaceOnUse">
      <feOffset dy="3" input="SourceAlpha"/>
      <feGaussianBlur stdDeviation="3" result="blur"/>
      <feFlood flood-opacity="0.161"/>
      <feComposite operator="in" in2="blur"/>
      <feComposite in="SourceGraphic"/>
    </filter>
  </defs>
  <g id="Group_70" data-name="Group 70" transform="translate(-888 -920)">
    <g transform="matrix(1, 0, 0, 1, 888, 920)" filter="url(#Ellipse_2)">
      <circle id="Ellipse_2-2" data-name="Ellipse 2" cx="133" cy="133" r="133" transform="translate(9 6)" fill="#159570"/>
    </g>
    <g id="complaint" transform="translate(967.99 989.981)">
      <path id="Path_16" data-name="Path 16" d="M182.7,394.392a2.7,2.7,0,1,0-2.7-2.7A2.7,2.7,0,0,0,182.7,394.392Zm0,0" transform="translate(-131.471 -284.123)" fill="#fff"/>
      <path id="Path_17" data-name="Path 17" d="M115.931,44.755h-13.48V2.7a2.7,2.7,0,0,0-2.7-2.7H24.265a2.7,2.7,0,0,0-2.7,2.7V44.755H8.088A8.1,8.1,0,0,0,0,52.843V74.412a8.1,8.1,0,0,0,5.392,7.625v47.914a8.1,8.1,0,0,0,8.088,8.088h97.059a8.1,8.1,0,0,0,8.088-8.088V82.036a8.1,8.1,0,0,0,5.392-7.625V52.843A8.1,8.1,0,0,0,115.931,44.755Zm-13.48,16.176h5.392v5.392h-5.392ZM26.961,5.392h70.1V66.323h-70.1ZM16.176,66.323V60.931h5.392v5.392Zm94.363,66.323H13.48a2.7,2.7,0,0,1-2.7-2.7V82.5H113.235v47.451A2.7,2.7,0,0,1,110.539,132.647Zm8.088-58.235a2.7,2.7,0,0,1-2.7,2.7H8.088a2.7,2.7,0,0,1-2.7-2.7V52.843a2.7,2.7,0,0,1,2.7-2.7h13.48v5.392H13.48a2.7,2.7,0,0,0-2.7,2.7V69.019a2.7,2.7,0,0,0,2.7,2.7h97.059a2.7,2.7,0,0,0,2.7-2.7V58.235a2.7,2.7,0,0,0-2.7-2.7h-8.088V50.147h13.48a2.7,2.7,0,0,1,2.7,2.7Zm0,0" fill="#fff"/>
      <path id="Path_18" data-name="Path 18" d="M176.618,349H122.7a2.7,2.7,0,0,0-2.7,2.7v21.569a2.7,2.7,0,0,0,2.7,2.7h53.921a2.7,2.7,0,0,0,2.7-2.7V351.7A2.7,2.7,0,0,0,176.618,349Zm-2.7,21.569H125.392V354.392h48.529Zm0,0" transform="translate(-87.647 -254.907)" fill="#fff"/>
      <path id="Path_19" data-name="Path 19" d="M222.7,394.392H233.48a2.7,2.7,0,0,0,0-5.392H222.7a2.7,2.7,0,1,0,0,5.392Zm0,0" transform="translate(-160.686 -284.123)" fill="#fff"/>
      <path id="Path_20" data-name="Path 20" d="M162.7,147.569a2.7,2.7,0,0,0,2.7-2.7,13.48,13.48,0,1,1,26.961,0,2.7,2.7,0,1,0,5.392,0,18.873,18.873,0,1,0-37.745,0A2.7,2.7,0,0,0,162.7,147.569Zm0,0" transform="translate(-116.863 -92.029)" fill="#fff"/>
      <path id="Path_21" data-name="Path 21" d="M162.7,76.784a2.7,2.7,0,0,0,2.7-2.7V68.7a2.7,2.7,0,1,0-5.392,0v5.392A2.7,2.7,0,0,0,162.7,76.784Zm0,0" transform="translate(-116.863 -48.206)" fill="#fff"/>
      <path id="Path_22" data-name="Path 22" d="M282.7,76.784a2.7,2.7,0,0,0,2.7-2.7V68.7a2.7,2.7,0,0,0-5.392,0v5.392A2.7,2.7,0,0,0,282.7,76.784Zm0,0" transform="translate(-204.51 -48.206)" fill="#fff"/>
    </g>
  </g>
</svg>
