<svg xmlns="http://www.w3.org/2000/svg" xmlns:xlink="http://www.w3.org/1999/xlink" width="284" height="284" viewBox="0 0 284 284">
  <defs>
    <filter id="Ellipse_2" x="0" y="0" width="284" height="284" filterUnits="userSpaceOnUse">
      <feOffset dy="3" input="SourceAlpha"/>
      <feGaussianBlur stdDeviation="3" result="blur"/>
      <feFlood flood-opacity="0.161"/>
      <feComposite operator="in" in2="blur"/>
      <feComposite in="SourceGraphic"/>
    </filter>
  </defs>
  <g id="Group_74" data-name="Group 74" transform="translate(-888 -2680)">
    <g transform="matrix(1, 0, 0, 1, 888, 2680)" filter="url(#Ellipse_2)">
      <circle id="Ellipse_2-2" data-name="Ellipse 2" cx="133" cy="133" r="133" transform="translate(9 6)" fill="#159570"/>
    </g>
    <g id="garbage-truck" transform="translate(933 2667.671)">
      <g id="Group_27" data-name="Group 27" transform="translate(0 95.98)">
        <g id="Group_26" data-name="Group 26" transform="translate(0)">
          <path id="Path_42" data-name="Path 42" d="M189.623,166.534l-32.758-62.24a3.276,3.276,0,0,0-2.9-1.762H134.311V95.98H127.76v6.552h-13.1V95.98H108.1v6.552H95V95.98H88.45v6.552h-13.1V95.98H68.8v6.552h-13.1a3.276,3.276,0,0,0-3.276,3.276v22.931H29.486a3.275,3.275,0,0,0-2.316.96L.963,155.9l-.02.023a3.31,3.31,0,0,0-.619.921,3.154,3.154,0,0,0-.108.308,3.276,3.276,0,0,0-.177.868c0,.072-.039.131-.039.2v32.755a3.276,3.276,0,0,0,3.276,3.276H13.434a16.379,16.379,0,0,0,32.1,0H95.329a16.323,16.323,0,0,0,29.155,6.45,16.323,16.323,0,0,0,29.155-6.45h19.982a3.275,3.275,0,0,0,2.843-1.638l13.1-22.931A3.275,3.275,0,0,0,189.623,166.534ZM30.842,135.29h1.92v19.655H11.187Zm-1.356,65.516a9.827,9.827,0,1,1,9.827-9.827A9.827,9.827,0,0,1,29.486,200.806Zm22.931-13.1H45.537a.847.847,0,0,0-.052-.17,16.261,16.261,0,0,0-.848-2.729c-.128-.328-.3-.6-.449-.907a16.676,16.676,0,0,0-.947-1.736c-.21-.328-.449-.626-.678-.934a16.994,16.994,0,0,0-1.16-1.405c-.275-.292-.56-.563-.855-.835a15.405,15.405,0,0,0-1.382-1.14c-.328-.239-.655-.468-.983-.685a17.124,17.124,0,0,0-1.622-.881c-.347-.167-.685-.328-1.045-.488a16.217,16.217,0,0,0-1.965-.606c-.328-.085-.636-.2-.966-.262a15.556,15.556,0,0,0-6.224,0c-.328.066-.655.177-.966.262a16.144,16.144,0,0,0-1.965.606c-.36.144-.7.328-1.045.488a17.124,17.124,0,0,0-1.622.881c-.328.216-.655.446-.983.685a15.405,15.405,0,0,0-1.382,1.14c-.295.272-.58.544-.855.835a16.99,16.99,0,0,0-1.16,1.405c-.229.308-.468.606-.678.934a16.678,16.678,0,0,0-.947,1.736c-.147.3-.328.593-.449.907a16.26,16.26,0,0,0-.848,2.729.848.848,0,0,1-.052.17H6.555V161.5H36.037a3.276,3.276,0,0,0,3.276-3.276V135.29h13.1Zm111.377-56.19,8.884,16.88h-16.8l-4.465-16.379h12.386v-.5ZM152,109.083l8.622,16.379h-11l-4.465-16.379ZM97.95,181.649c-.108.17-.18.265-.269.4a16.377,16.377,0,0,0-1.31,2.44c-.052.121-.1.242-.144.364a16.081,16.081,0,0,0-.868,2.794v.046H58.968v-6.542h39.31C98.156,181.311,98.058,181.479,97.95,181.649Zm13.431,19.157a9.827,9.827,0,1,1,9.827-9.827A9.827,9.827,0,0,1,111.381,200.806Zm26.206,0a9.827,9.827,0,1,1,9.827-9.827A9.827,9.827,0,0,1,137.587,200.806ZM58.968,174.6V109.083H138.36l3.574,13.1L156.226,174.6Zm98.274,13.1h-3.6v-.046a16.082,16.082,0,0,0-.868-2.794c-.049-.121-.092-.242-.144-.364a16.378,16.378,0,0,0-1.31-2.44c-.088-.134-.177-.269-.269-.4s-.213-.328-.328-.5h6.552Zm14.479,0h-7.927v-6.552h11.672Zm7.485-13.1H163.021l-5.359-19.655h18.466l6.86,13.038Z" transform="translate(0 -95.98)" fill="#fff"/>
        </g>
      </g>
      <g id="Group_29" data-name="Group 29" transform="translate(91.718 115.629)">
        <g id="Group_28" data-name="Group 28" transform="translate(0 0)">
          <path id="Path_43" data-name="Path 43" d="M248.568,150.54a3.276,3.276,0,0,0-3.648,2.551v.039l-5.091-7.692a3.275,3.275,0,0,0-2.729-1.468,2.971,2.971,0,0,0-2.732,1.458l-9.827,14.741A3.28,3.28,0,0,0,230,163.807l7.1-10.637,6.879,10.42a3.276,3.276,0,0,0,5.955-1.238l1.432-8.121A3.276,3.276,0,0,0,248.568,150.54Z" transform="translate(-223.99 -143.967)" fill="#fff"/>
        </g>
      </g>
      <g id="Group_31" data-name="Group 31" transform="translate(75.333 140.137)">
        <g id="Group_30" data-name="Group 30">
          <path id="Path_44" data-name="Path 44" d="M206.919,218.625H193.383l6.434-9.647a3.3,3.3,0,0,0,.55-1.818,3.335,3.335,0,0,0-1.222-2.565c-1.278-1.042-1.916-1.212-10.633.586a3.276,3.276,0,0,0,1.31,6.414l.419-.085-5.716,8.573a3.276,3.276,0,0,0,2.739,5.094h19.655a3.276,3.276,0,1,0,0-6.552Z" transform="translate(-183.974 -203.817)" fill="#fff"/>
        </g>
      </g>
      <g id="Group_33" data-name="Group 33" transform="translate(108.092 140.406)">
        <g id="Group_32" data-name="Group 32" transform="translate(0 0)">
          <path id="Path_45" data-name="Path 45" d="M289.616,220.428,279.586,205.89a3.278,3.278,0,1,0-5.4,3.725h0l6.506,9.4H267.266a3.276,3.276,0,0,0-2.352,5.569l4.367,4.5a3.276,3.276,0,0,0,5.392-3.521H286.92a3.276,3.276,0,0,0,2.7-5.136Z" transform="translate(-263.977 -204.474)" fill="#fff"/>
        </g>
      </g>
      <g id="Group_35" data-name="Group 35" transform="translate(26.21 187.703)">
        <g id="Group_34" data-name="Group 34">
          <rect id="Rectangle_16" data-name="Rectangle 16" width="7" height="7" transform="translate(-0.21 -0.373)" fill="#fff"/>
        </g>
      </g>
      <g id="Group_37" data-name="Group 37" transform="translate(108.105 187.703)">
        <g id="Group_36" data-name="Group 36">
          <rect id="Rectangle_17" data-name="Rectangle 17" width="7" height="7" transform="translate(-0.105 -0.373)" fill="#fff"/>
        </g>
      </g>
      <g id="Group_39" data-name="Group 39" transform="translate(134.311 187.703)">
        <g id="Group_38" data-name="Group 38">
          <rect id="Rectangle_18" data-name="Rectangle 18" width="7" height="7" transform="translate(-0.311 -0.373)" fill="#fff"/>
        </g>
      </g>
    </g>
  </g>
</svg>
