<svg xmlns="http://www.w3.org/2000/svg" xmlns:xlink="http://www.w3.org/1999/xlink" width="284" height="284" viewBox="0 0 284 284">
  <defs>
    <filter id="Ellipse_7" x="0" y="0" width="284" height="284" filterUnits="userSpaceOnUse">
      <feOffset dy="3" input="SourceAlpha"/>
      <feGaussianBlur stdDeviation="3" result="blur"/>
      <feFlood flood-opacity="0.161"/>
      <feComposite operator="in" in2="blur"/>
      <feComposite in="SourceGraphic"/>
    </filter>
  </defs>
  <g id="Group_73" data-name="Group 73" transform="translate(-194 -2240)">
    <g transform="matrix(1, 0, 0, 1, 194, 2240)" filter="url(#Ellipse_7)">
      <circle id="Ellipse_7-2" data-name="Ellipse 7" cx="133" cy="133" r="133" transform="translate(9 6)" fill="#159570"/>
    </g>
    <g id="mechanic" transform="translate(267 2310)">
      <g id="Group_24" data-name="Group 24">
        <g id="Group_23" data-name="Group 23">
          <path id="Path_40" data-name="Path 40" d="M131.623,118.4h.181V105a50.073,50.073,0,0,0-2.415-14.284l-7.283-16.992h-11.88l-7.35,17.166A49.8,49.8,0,0,0,100.528,105v4.468h-6.7a6.71,6.71,0,0,1-6.7-6.7v-9.3A35.736,35.736,0,0,0,105,62.551v-.317a8.927,8.927,0,0,0,6.7-8.618,12.484,12.484,0,0,0-2.359-7.658,7.017,7.017,0,0,0,.125-1.278V40.211a40.211,40.211,0,1,0-80.422,0v4.468a7.017,7.017,0,0,0,.125,1.278,12.484,12.484,0,0,0-2.359,7.658,8.926,8.926,0,0,0,6.7,8.618v.317A35.736,35.736,0,0,0,51.381,93.458v9.3a6.71,6.71,0,0,1-6.7,6.7H33.509v-3.148c4.392-2.663,6.7-6.952,6.7-12.49a13.8,13.8,0,0,0-10.678-13.35l-2.726-.615V91.592H22.339V79.857l-2.73.619A13.818,13.818,0,0,0,8.936,93.826c0,5.538,2.31,9.825,6.7,12.49v5.619A26.819,26.819,0,0,0,0,136.272v2.234H4.468v-2.234a22.369,22.369,0,0,1,20.106-22.226v24.46h4.468V113.932h6.7v24.574h4.468V113.932h4.468a11.125,11.125,0,0,0,2.632-.346,22.322,22.322,0,0,0,43.884,0,11.125,11.125,0,0,0,2.632.346h4.468v24.574h4.468V113.932h6.7v24.574h4.468v-24.46a22.371,22.371,0,0,1,20.106,22.226v2.234h4.468v-2.234A26.669,26.669,0,0,0,131.623,118.4ZM30.281,102.995l-1.24.616v5.853H26.807a26.65,26.65,0,0,0-6.7.882v-6.735l-1.239-.616c-3.675-1.825-5.462-4.823-5.462-9.168a9.429,9.429,0,0,1,4.468-7.9V96.06h13.4V85.925a9.426,9.426,0,0,1,4.468,7.9C35.743,98.172,33.956,101.169,30.281,102.995ZM105,51.7a13.879,13.879,0,0,0,1.7-1.293,9.378,9.378,0,0,1,.534,3.21A4.455,4.455,0,0,1,105,57.463ZM67.019,4.582V20.106h4.468V4.582a35.736,35.736,0,0,1,33.449,34.454C96.985,34.8,80.3,33.51,69.253,33.51S41.521,34.8,33.57,39.035A35.733,35.733,0,0,1,67.019,4.582ZM33.51,57.46a4.447,4.447,0,0,1-2.234-3.845,9.385,9.385,0,0,1,.534-3.213,13.423,13.423,0,0,0,1.7,1.293Zm0-12.774c.438-2.279,13.433-6.709,35.741-6.709s35.321,4.434,35.743,6.7c0,4.392-13.37,8.936-35.743,8.936S33.523,49.076,33.512,44.686Zm4.466,17.865V53.916c9.849,3.753,25.114,4.166,31.276,4.166s21.426-.413,31.276-4.166v8.634a31.276,31.276,0,0,1-62.551,0Zm31.276,64.785a17.891,17.891,0,0,1-17.742-15.8,11.107,11.107,0,0,0,4.339-8.77v-7.1a35.447,35.447,0,0,0,26.807,0v7.1a11.107,11.107,0,0,0,4.339,8.77A17.891,17.891,0,0,1,69.253,127.336Zm41.954-17.872H105V105a45.451,45.451,0,0,1,2.053-12.523l6.121-14.284h.762V98.705a6.641,6.641,0,0,0-2.726,10.759Zm4.959-2.234A2.234,2.234,0,1,1,118.4,105,2.236,2.236,0,0,1,116.166,107.23Zm11.17,7.311a26.753,26.753,0,0,0-7.656-3.865A6.66,6.66,0,0,0,118.4,98.7V78.188h.762l6.054,14.11a45.94,45.94,0,0,1,2.12,12.7v9.544Z" fill="#fff"/>
          <path id="Path_41" data-name="Path 41" d="M147.325,133.039h20.106v-4.468H142.857v22.34h4.468Z" transform="translate(-75.838 -68.254)" fill="#fff"/>
          <rect id="Rectangle_14" data-name="Rectangle 14" width="4.468" height="4.468" transform="translate(40.211 29.042)" fill="#fff"/>
          <rect id="Rectangle_15" data-name="Rectangle 15" width="4.468" height="4.468" transform="translate(49.147 26.808)" fill="#fff"/>
        </g>
      </g>
    </g>
  </g>
</svg>
