<svg xmlns="http://www.w3.org/2000/svg" xmlns:xlink="http://www.w3.org/1999/xlink" width="284" height="284" viewBox="0 0 284 284">
  <defs>
    <filter id="Ellipse_1" x="0" y="0" width="284" height="284" filterUnits="userSpaceOnUse">
      <feOffset dy="3" input="SourceAlpha"/>
      <feGaussianBlur stdDeviation="3" result="blur"/>
      <feFlood flood-opacity="0.161"/>
      <feComposite operator="in" in2="blur"/>
      <feComposite in="SourceGraphic"/>
    </filter>
  </defs>
  <g id="Group_69" data-name="Group 69" transform="translate(-194 -481)">
    <g transform="matrix(1, 0, 0, 1, 194, 481)" filter="url(#Ellipse_1)">
      <circle id="Ellipse_1-2" data-name="Ellipse 1" cx="133" cy="133" r="133" transform="translate(9 6)" fill="#159570"/>
    </g>
    <g id="online" transform="translate(264 550.5)">
      <path id="Path_12" data-name="Path 12" d="M136.177,15.009H108.043V3.047a2.543,2.543,0,0,0-4.34-1.721L98.779,6.378,93.863,1.326a2.478,2.478,0,0,0-3.55,0l-4.9,5.05-4.9-5.087a2.386,2.386,0,0,0-3.545,0l-4.9,5.068-4.9-5.039a2.472,2.472,0,0,0-3.545.007l-4.9,5.05-4.9-5.048a2.47,2.47,0,0,0-3.545,0L45.384,6.374,40.492,1.328a2.577,2.577,0,0,0-2.766-.57,2.531,2.531,0,0,0-1.609,2.289V15.009H8.293A8.4,8.4,0,0,0,0,23.347v85.8A8.414,8.414,0,0,0,8.293,117.5H50.046l-4.375,15.743H36.782a2.47,2.47,0,0,0,0,4.939h70.595a2.47,2.47,0,1,0,0-4.939H98.486L94.112,117.5h42.065a8.414,8.414,0,0,0,8.293-8.353v-85.8a8.4,8.4,0,0,0-8.293-8.338ZM41.057,9.143l2.488,2.572a2.618,2.618,0,0,0,1.806.824h.017a2.568,2.568,0,0,0,1.781-.824l4.9-5.085,4.9,5.03a2.475,2.475,0,0,0,3.546-.013l4.9-5.051,4.9,5.049a2.47,2.47,0,0,0,3.544,0l4.9-5.049,4.9,5.121a2.319,2.319,0,0,0,3.544,0l4.905-5.089,4.908,5.033a2.463,2.463,0,0,0,1.771.742,2.628,2.628,0,0,0,1.838-.754l2.5-2.517v70.7H41.056ZM8.293,19.948H36.117V79.834H26.371a2.47,2.47,0,1,0,0,4.939H117.79a2.47,2.47,0,1,0,0-4.939h-9.747V19.948h28.133a3.458,3.458,0,0,1,3.353,3.4v70.07H4.939V23.347a3.458,3.458,0,0,1,3.353-3.4ZM93.364,133.239H50.795L55.17,117.5H88.99Zm42.812-20.683H8.293a3.471,3.471,0,0,1-3.353-3.414V98.356H139.53v10.786a3.471,3.471,0,0,1-3.353,3.414Zm0,0" fill="#fff"/>
      <path id="Path_13" data-name="Path 13" d="M191.479,191.439h22.534a2.47,2.47,0,0,0,0-4.939H191.481a2.47,2.47,0,0,0,0,4.939Zm0,0" transform="translate(-130.665 -128.583)" fill="#fff"/>
      <path id="Path_14" data-name="Path 14" d="M200.707,219.5H156.716a2.47,2.47,0,1,0,0,4.939h43.991a2.47,2.47,0,0,0,0-4.939Zm0,0" transform="translate(-106.631 -151.396)" fill="#fff"/>
      <path id="Path_15" data-name="Path 15" d="M213.685,76.282a4.134,4.134,0,0,1-4.129-4.129,2.47,2.47,0,0,0-4.939,0,9.083,9.083,0,0,0,5.981,8.525v1.939a2.47,2.47,0,1,0,4.939,0V81.03a9.068,9.068,0,0,0-1.852-17.945,4.129,4.129,0,1,1,4.129-4.129,2.47,2.47,0,1,0,4.939,0,9.082,9.082,0,0,0-7.216-8.877V48.97a2.47,2.47,0,0,0-4.939,0v1.459a9.068,9.068,0,0,0,3.087,17.6,4.129,4.129,0,0,1,0,8.258Zm0,0" transform="translate(-141.451 -31.8)" fill="#fff"/>
    </g>
  </g>
</svg>
